<?xml version="1.0" encoding="iso-8859-1"?>
<!-- Generator: Adobe Illustrator 16.0.0, SVG Export Plug-In . SVG Version: 6.00 Build 0)  -->
<!DOCTYPE svg PUBLIC "-//W3C//DTD SVG 1.1//EN" "http://www.w3.org/Graphics/SVG/1.1/DTD/svg11.dtd">
<svg version="1.1" id="Capa_1" xmlns="http://www.w3.org/2000/svg" xmlns:xlink="http://www.w3.org/1999/xlink" x="0px" y="0px"
	 width="108.336px" height="108.336px" viewBox="0 0 108.336 108.336" style="enable-background:new 0 0 108.336 108.336;"
	 xml:space="preserve">
<g>
	<g>
		<path d="M37.326,57.784c-0.051,0.024-0.1,0.039-0.148,0.051c0.02,0.002,0.036,0,0.057,0.003c0.327,0.045,0.697,0.119,0.938,0.325
			c0.327,0.276,0.638,0.323,0.983,0.202c-0.09-0.051-0.182-0.106-0.25-0.182C38.469,57.691,38,57.454,37.326,57.784z"/>
		<path d="M34.645,57.572c-0.143,0.006-0.264-0.022-0.369-0.092C34.389,57.594,34.515,57.609,34.645,57.572z"/>
		<path d="M46.898,74.486c-0.051-0.021-0.104-0.034-0.153-0.051c-0.044,0.006-0.085,0.02-0.13,0.024
			c-0.145,0.024-0.281,0.072-0.404,0.151c0.004,0.041,0.014,0.08,0.016,0.123c0.006,0.203,0.109,0.367,0.297,0.443
			c0.276,0.109,0.619,0.369,0.821-0.025C47.537,74.777,47.209,74.6,46.898,74.486z"/>
		<path d="M34.948,57.402c-0.099,0.088-0.202,0.14-0.304,0.17c0.033-0.002,0.063,0.001,0.099-0.004
			c0.388-0.053,0.625,0.162,0.756,0.521c0.122,0.332,0.175,0.697,0.435,0.966c-0.098-0.689,0.268-1.16,0.91-1.222
			c-0.281-0.067-0.538-0.276-0.776-0.425C35.658,57.152,35.354,57.05,34.948,57.402z"/>
		<path d="M33.152,57.408c0.064-0.029,0.13-0.084,0.195-0.182c0.055-0.08,0.121-0.14,0.191-0.18
			c-0.025,0.006-0.049,0.004-0.073,0.014C33.356,57.102,33.244,57.238,33.152,57.408z"/>
		<path d="M35.691,51.004c0.131-0.033,0.25-0.072,0.34-0.105C35.947,50.932,35.814,50.954,35.691,51.004z"/>
		<path d="M33.539,57.048c0.215-0.044,0.406,0.063,0.533,0.24c0.063,0.088,0.131,0.146,0.203,0.192
			c-0.058-0.058-0.113-0.131-0.162-0.242C34.007,56.996,33.753,56.928,33.539,57.048z"/>
		<path d="M32.516,57.284c-0.184-0.022-0.264-0.119-0.299-0.263c-0.002,0.363,0.062,0.746,0.57,0.879
			c0.146,0.037,0.135,0.271,0.148,0.295c-0.037-0.145,0.064-0.508,0.217-0.787C32.938,57.507,32.726,57.311,32.516,57.284z"/>
		<path d="M32.39,55.593c0.093-0.116,0.063-0.202,0.025-0.284c-0.026,0.309-0.205,0.555-0.54,0.75
			c-0.121,0.07-0.194,0.217-0.244,0.387c0.265-0.106,0.467-0.164,0.551,0.022C32.171,56.158,32.18,55.855,32.39,55.593z"/>
		<path d="M32.357,55.157c0.01,0.053,0.035,0.101,0.058,0.149c0.011-0.135-0.003-0.279-0.058-0.44
			C32.357,54.963,32.34,55.055,32.357,55.157z"/>
		<path d="M23.327,63.393c-0.002-0.008-0.006-0.008-0.008-0.016l-0.001,0.001C23.325,63.38,23.327,63.395,23.327,63.393z"/>
		<path d="M33.449,53.675c0.375-0.021,0.5-0.122,0.502-0.459c0.174-0.408,0.427-0.784,0.484-1.237
			c0.395-0.186,0.785-0.357,1.016-0.783c0.053-0.099,0.145-0.152,0.24-0.191c-0.103,0.025-0.211,0.049-0.326,0.055
			c-0.334,0.018-0.477-0.277-0.67-0.463c-0.168-0.161-0.367-0.227-0.564-0.245c-0.25-0.022-0.395-0.142-0.449-0.353
			c-0.061-0.227,0.051-0.393,0.256-0.52c0.248-0.15,0.543-0.329,0.451-0.667c-0.043-0.159-0.244-0.276-0.121-0.487
			c-0.061,0.293-0.256,0.35-0.522,0.321c-0.188-0.021-0.288-0.157-0.425-0.25c-0.461-0.312-1.131-0.212-1.48,0.214
			c-0.721,0.877-1.332,1.073-2.397,0.738c-0.348-0.109-0.697-0.15-1.055-0.137c0.017,0.033,0.039,0.064,0.04,0.109
			c0.011,0.053,0.001,0.087,0.005,0.133c0.535,0.207,0.367,0.843,0.611,1.286c0.439-0.419,0.854-0.373,1.277,0.048
			c0.152,0.151,0.415,0.192,0.626,0.285c0.189,0.084,0.436,0.141,0.428,0.399c-0.008,0.214-0.227,0.298-0.397,0.363
			c-0.239,0.091-0.427-0.044-0.51-0.252c-0.131-0.323-0.301-0.507-0.662-0.33c-0.072,0.035-0.182,0.089-0.188,0.144
			c-0.021,0.189,0.118,0.46-0.229,0.466c-0.328,0.006-0.693,0.131-0.97-0.134c-0.319-0.307-0.757-0.311-1.2-0.607
			c0.086,0.214,0.125,0.306,0.159,0.399c0.081,0.225,0.591,0.378,0.152,0.688c-0.357,0.254-0.889,0.088-1.089-0.295
			c-0.02-0.037-0.037-0.076-0.046-0.116c-0.082-0.36-0.044-0.894-0.478-0.931c-0.162-0.014-0.295,0.048-0.417,0.134
			c-0.021,0.097-0.024,0.209-0.015,0.339c0.009,0.127-0.111,0.221-0.156,0.338c-0.105,0.29-0.036,0.486,0.282,0.574
			c0.263,0.072,0.519,0.172,0.772,0.266c0.435,0.161,0.486,0.486,0.136,0.803c-0.153,0.138-0.333,0.245-0.44,0.445
			c0.799,0.003,0.803,0.003,0.848,0.846c0.02,0.35,0.226,0.526,0.521,0.635c0.283,0.104,0.554,0.234,0.816,0.382
			c-0.026-0.608,0.208-0.696,1.002-0.63c0.842,0.07,1.729,0.236,2.431-0.49c0.126-0.131,0.309-0.252,0.51-0.173
			c0.245,0.097,0.082,0.334,0.142,0.495c0.005,0.014,0.003,0.023,0.007,0.036C32.365,54.217,32.758,53.712,33.449,53.675z"/>
		<path d="M32.182,56.468c0.003,0.107,0.008,0.216,0.009,0.324c0.001,0.089,0.011,0.163,0.026,0.229
			c0.001-0.073,0.004-0.147,0.006-0.219C32.231,56.646,32.213,56.54,32.182,56.468z"/>
		<path d="M19.026,24.523v0.002c0.043-0.041,0.094-0.066,0.146-0.092C19.12,24.458,19.069,24.484,19.026,24.523z"/>
		<path d="M45.303,11.133c0.099-0.102,0.211-0.195,0.344-0.278C45.471,10.929,45.366,11.024,45.303,11.133z"/>
		<path d="M47.949,58.895c-0.005-0.021-0.006-0.043-0.008-0.064c-0.002,0.004-0.004,0.005-0.004,0.01
			C47.934,58.875,47.932,58.891,47.949,58.895z"/>
		<path d="M55.808,31.018c-0.105,0.057-0.281,0.174-0.427,0.082c-0.002,0.002-0.006,0.004-0.008,0.007
			c-0.039,0.019-0.08,0.024-0.119,0.03c-0.024,0.346-0.021,0.67,0.463,0.802c0.144,0.038,0.371,0.21,0.425,0.134
			c0.254-0.367,0.735-0.207,1.008-0.486c0.092-0.096,0.061-0.215-0.056-0.253C56.676,31.195,56.347,30.74,55.808,31.018z"/>
		<path d="M52.336,34.355c-0.244-0.061-0.447-0.162-0.604-0.358c0.262,0.201,0.229,0.379-0.021,0.587
			c-0.193,0.161-0.387,0.378-0.234,0.651c0.172,0.309,0.49,0.303,0.781,0.217c0.271-0.08,0.711-0.108,0.713-0.398
			C52.975,34.758,52.695,34.445,52.336,34.355z"/>
		<path d="M47.872,67.073c0.009-0.025,0.021-0.048,0.03-0.073c-0.012,0.025-0.025,0.048-0.039,0.072
			C47.867,67.072,47.869,67.073,47.872,67.073z"/>
		<path d="M45.104,35.033c0.037-0.051,0.068-0.098,0.059-0.109c-0.547-0.65,0.271-1.668-0.609-2.23
			c-0.291-0.186-0.156-0.293,0.093-0.423c0.221-0.116,0.748-0.007,0.63-0.31c-0.158-0.404-0.104-0.977-0.58-1.207
			c-0.382-0.184-0.795-0.633-1.184,0.104c-0.115,0.217-0.689,0.102-0.873,0.486c-0.059,0.576-0.422,0.975-0.767,1.383
			c0.012,0.02,0.026,0.031,0.037,0.054c0.091,0.302-0.043,0.581-0.107,0.86c-0.075,0.328-0.325,0.471-0.669,0.428
			c-0.675-0.082-0.949,0.227-0.78,0.896c0.044,0.179,0.163,0.346-0.001,0.518c0.314,0.121,0.604,0.137,0.77-0.35
			c0.186-0.141,0.393-0.21,0.625-0.193c0.579,0.273,0.053,0.521-0.017,0.781c-0.034,0.014-0.069,0.027-0.104,0.041
			c-0.245,0.068-0.392,0.189-0.491,0.338c0.074,0.281,0.059,0.584,0.052,0.881c0.001-0.002,0.001-0.003,0.002-0.005
			c0.11-0.535,0.532-0.813,1.062-0.741c0.41,0.055,0.658,0.497,0.604,1.057c-0.034,0.346-0.002,0.707-0.369,0.988
			c0.473,0.043,0.367-0.303,0.365-0.438c-0.006-0.45,0.079-0.858,0.355-1.212c0.141-0.178,0.129-0.325,0.029-0.516
			c-0.232-0.44-0.146-0.854,0.298-0.991C44.037,34.967,44.578,34.695,45.104,35.033z"/>
		<path d="M25.696,64.098c-0.031-0.088-0.044-0.179-0.068-0.268c-0.024-0.028-0.053-0.049-0.064-0.1
			c-0.262-1.162-0.597-2.308-0.729-3.494c-0.025-0.232-0.084-0.452-0.213-0.651c-0.325-0.499-0.582-0.507-0.877,0.013
			c-0.223,0.389-0.447,0.463-0.778,0.137c-0.14-0.139-0.386-0.26-0.511-0.142c-0.322,0.306-0.701,0.249-1.068,0.269
			c0.113,0.399,0.147,0.812,0.085,1.216c-0.095,0.602,0.13,1.118,0.331,1.646c0.168,0.437,0.535,0.557,0.979,0.502
			c0.198-0.022,0.454-0.201,0.536,0.153c0.27-0.46,0.646-0.313,0.952-0.104c0.38,0.262,0.737,0.545,1.161,0.744
			c0.214,0.099,0.397,0.28,0.416,0.56c0.006,0.089,0.026,0.153,0.055,0.204c0.002-0.01,0.004-0.018,0.007-0.025
			c-0.026-0.061-0.047-0.135-0.057-0.232C25.839,64.378,25.766,64.23,25.696,64.098z"/>
		<path d="M39.156,58.365c0.008,0.004,0.014,0.01,0.02,0.014c0.025,0.014,0.037,0.016,0.041-0.002
			c0.002-0.003,0.002-0.002,0.004-0.005c-0.011,0-0.021-0.001-0.042-0.013C39.172,58.361,39.164,58.361,39.156,58.365z"/>
		<path d="M44.987,62.855c-0.05-0.267-0.104-0.529-0.208-0.83c-0.143,0.578-1.08,0.785-0.809,1.363
			c0.209,0.448,0.063,1.104,0.604,1.395c0.105-0.328,0.449-0.475,0.68-0.617c0.229-0.145,0.541,0.32,0.91,0.35
			c0.203,0.016,0.107,0.267,0.082,0.428c-0.032,0.203-0.05,0.412-0.074,0.617c0.26,0.354,0.667,0.385,1.039,0.491
			c0.172-0.082,0.325-0.2,0.527-0.087c0.344,0.262,0.272,0.607,0.195,0.954c-0.01,0.028-0.021,0.054-0.031,0.082
			c0.009-0.021,0.021-0.037,0.029-0.06c0.186-0.168,0.32-0.012,0.469,0.063c0.203-0.517,0.318-1.065,0.549-1.571
			c-0.365-0.298-0.594-0.711-0.838-1.095c-0.289-0.452-0.684-0.603-1.162-0.621c-0.518-0.019-0.957-0.178-1.291-0.56
			C45.268,63.434,45.064,63.268,44.987,62.855z"/>
		<path d="M47.962,58.898c-0.009,0.002-0.009-0.004-0.013-0.004c0.003,0.017,0,0.035,0.006,0.051
			C47.943,58.991,48.046,58.895,47.962,58.898z"/>
		<path d="M108.267,51.385c-1.08-21.205-14.408-39.23-33.033-47.121C68.754,1.519,61.635,0,54.168,0l0,0l0,0
			C34.567,0,17.365,10.465,7.854,26.101c-4.982,8.19-7.853,17.8-7.853,28.067c0,10.268,2.871,19.877,7.853,28.066
			c9.511,15.637,26.713,26.102,46.314,26.102l0,0l0,0c7.467,0,14.586-1.52,21.063-4.264c18.627-7.891,31.955-25.916,33.033-47.121
			c0.047-0.922,0.07-1.85,0.07-2.783C108.335,53.235,108.313,52.307,108.267,51.385z M68.228,16.73
			c0.108-0.3,0.393-0.284,0.645-0.218c0.324,0.088,0.512,0.286,0.457,0.473c-0.162,0.604,0.26,0.797,0.361,1.131
			c0.057,0.191,0.266,0.368,0.071,0.572c-0.18,0.188-0.344,0.045-0.495-0.072c-0.168-0.129-0.384-0.01-0.55-0.092
			c-0.229-0.114-0.771-0.127-0.237-0.574c0.215-0.182,0.061-0.314-0.103-0.377C67.86,17.367,68.123,17.018,68.228,16.73z
			 M13.03,81.785c-0.354-0.053-0.433-0.416-0.534-0.699c-0.055-0.152,0.007-0.387,0.228-0.365c0.365,0.035,0.508,0.324,0.582,0.629
			C13.297,81.568,13.261,81.818,13.03,81.785z M17.102,83.639c-0.337,0.283-0.675,0.09-0.968-0.133
			c-1.158-0.879-1.609-2.037-1.342-3.439c1.316,0.355,1.956,1.386,2.467,2.535C17.425,82.979,17.431,83.363,17.102,83.639z
			 M37.518,95.322c-0.225-0.023-0.52-0.063-0.49-0.34c0.027-0.265,0.357-0.23,0.566-0.275c0.209-0.043,0.393,0.064,0.387,0.293
			C37.973,95.27,37.736,95.293,37.518,95.322z M45.162,98.643c-0.127-0.084-0.254-0.168-0.381-0.254
			c-0.114-0.162-0.286-0.238-0.457-0.32c-0.296-0.145-0.354-0.401-0.281-0.688c0.076-0.293,0.35-0.256,0.567-0.282
			c0.142-0.021,0.292,0.03,0.436,0.016c0.857-0.09,1.059,0.021,1.107,0.631C46.2,98.322,45.914,98.584,45.162,98.643z M47.29,91.678
			c-0.129,0.082-0.196,0.129-0.114,0.271c0,0,0.001,0.004,0,0.004c-0.783,0.479-1.594,0.807-2.52,0.416
			c-0.193-0.082-0.398-0.252-0.592-0.148c-0.593,0.312-0.811-0.066-0.967-0.508c-0.15-0.422-0.535-0.689-0.722-1.117
			c0.456-0.143,0.824,0.271,1.079,0.234c0.575-0.084,1.251,0.018,1.73-0.438c0.333-0.318,0.477-0.4,0.593,0.168
			c0.133,0.653,0.794,0.912,1.403,0.631c0.041,0.002,0.083,0.002,0.124,0.002C47.531,91.363,47.491,91.551,47.29,91.678z
			 M51.768,84.973c-0.262-0.006-0.449-0.119-0.445-0.408c0.004-0.213,0.131-0.371,0.348-0.362c0.289,0.008,0.398,0.252,0.512,0.461
			C52.137,84.914,51.969,84.977,51.768,84.973z M75.338,44.635c-0.375-0.316-0.692-0.06-0.724,0.223
			c-0.063,0.619-0.829,0.43-0.954,0.947c-0.021,0.088-0.228-0.07-0.201-0.199c0.071-0.377-0.062-0.65-0.354-0.877
			c-0.057-0.045-0.11-0.16-0.092-0.218c0.232-0.708-0.438-0.579-0.729-0.757c-0.347-0.21-0.691-0.137-0.898,0.308
			c-0.139-0.269-0.059-0.501-0.086-0.724c-0.256-0.248-0.082-0.52,0.021-0.734c0.08-0.172,0.125-0.273-0.019-0.404
			c-0.004-0.042-0.006-0.083-0.01-0.123c0.401-0.207,0.851-0.006,1.26-0.136c0.002-0.038,0.005-0.075,0.005-0.112
			c-0.355-0.182-0.574-0.522-0.882-0.762c-0.039-0.003-0.077-0.006-0.116-0.008c-0.285-0.271-0.521-0.584-0.732-0.912
			c0,0.217-0.248,0.327-0.48,0.412c-0.369,0.133-0.73,0.213-1.029,0.525c-0.223,0.234-0.551,0.076-0.807-0.08
			c-0.615-0.379-0.965-0.328-1.506,0.18c-0.176,0.166-0.332,0.398-0.629,0.386c-0.871,0.042-0.871,0.042-0.867-0.792
			c0-0.172-0.104-0.453-0.223-0.322c-0.422,0.463-0.594-0.023-0.855-0.154c-0.148-0.075-0.287-0.17-0.43-0.256
			c-0.316,0.021-0.666-0.074-0.896,0.252c-0.381,0.641-0.379,0.639-0.854,0.006c-0.072-0.096-0.166-0.199-0.273-0.242
			c-0.42-0.164-0.469-0.385-0.146-0.693c0.149-0.145,0.287-0.383,0.053-0.463c-0.769-0.26-0.778-1.299-1.647-1.486
			c-0.373-0.08-0.041-0.495,0.024-0.753c-0.717-0.015-1.364-0.301-2.057-0.198c-0.197,0.029-0.271-0.135-0.289-0.332
			c-0.045-0.505,0.389-0.715,0.644-1.021c0.092-0.113,0.317,0.038,0.356,0.229c0.043,0.21,0.151,0.235,0.313,0.15
			c0.092-0.047,0.221-0.099,0.244-0.175c0.059-0.192-0.139-0.217-0.252-0.302c-0.322-0.245-0.807-0.346-0.912-0.792
			c-0.02-0.008-0.039-0.016-0.057-0.023c-0.057-0.008-0.113-0.014-0.172-0.02c-0.098-0.077-0.17-0.157-0.227-0.24
			c-0.064-0.027-0.119-0.07-0.146-0.163c-0.063-0.225,0.086-0.388,0.246-0.525c0.043-0.037,0.088-0.073,0.131-0.11
			c0.028-0.096,0.054-0.193,0.076-0.291c-0.55,0.246-0.935,0.663-1.177,1.238c-0.053,0.126-0.188,0.195-0.328,0.125
			c0.193,0.156,0.384,0.342,0.587,0.51c0.096,0.08,0.194,0.17,0.247,0.283c0.08,0.168,0.306,0.445,0.119,0.514
			c-0.623,0.229-0.147,1.219-0.907,1.258c-0.431,0.021-0.541,0.173-0.384,0.541c0.117,0.272,0.054,0.553,0.064,0.828
			c0.062,0,0.127,0.013,0.186,0.049c0.349,0.216,0.709,0.459,0.734,0.934c0.023,0.429-0.146,0.705-0.578,0.884
			c-0.699,0.29-1.072,0.886-1.26,1.603c-0.014,0.005-0.025,0.002-0.039,0.003c0.34,0.806-0.504,1.961-1.375,1.758
			c-0.229-0.054-0.459-0.034-0.689-0.003c-0.811,0.11-1.098,0.799-0.605,1.461c0.221,0.297,0.527,0.462,0.869,0.596
			c0.646,0.256,0.701,0.467,0.324,1.048c-0.211,0.325-0.092,0.587,0.311,0.763c0.193,0.084,0.408,0.139,0.531,0.37
			c0.061,0.111,0.176,0.228,0.076,0.305c-0.277,0.215-0.551,0.42-0.799,0.678c-0.15,0.157-0.369,0.042-0.566-0.03
			c0,0.004,0,0.008,0,0.012c0.006,0.076-0.006,0.151-0.006,0.227c0.129,0.333,0.295,0.291,1.006,0.094
			c0.063,0.156,0.207,0.234,0.328,0.33c0.34,0.27,0.319,0.584-0.072,1.055c-0.197,0.108-0.453,0.131-0.584,0.34
			c-0.105,0.168-0.412,0.227-0.33,0.482c0.076,0.236,0.367-0.104,0.525,0.234c-0.467,0.082-0.887,0.291-1.355,0.324
			c-0.084,0.09-0.178,0.177-0.268,0.25c-0.396,0.033-0.813,0.35-1.191-0.059c-0.004-0.069,0.002-0.136,0.004-0.203
			c-0.396-0.072-0.795,0.014-1.193,0.022c-0.039,0.078-0.078,0.156-0.127,0.25c-0.346,0.096-0.68,0.21-0.883,0.539
			c-0.033,0.055-0.08,0.131-0.127,0.133c-0.779,0.049-1.512,0.615-2.324,0.275c-0.002,0.002-0.003,0.006-0.004,0.009
			c0.012,0.029,0.025,0.06,0.035,0.085c0.189,0.479,0.54,0.617,0.997,0.545c0.651-0.104,1.067,0.128,1.222,0.783
			c0.123,0.405,0.037,0.724-0.332,0.981c-0.443,0.309-0.776,0.809-1.424,0.707c-0.221-0.035-0.232,0.142-0.244,0.3
			c0,0.261-0.231,0.335-0.383,0.474c-0.27,0.102-0.383,0.35-0.512,0.572c-0.268,0.468-0.232,0.537,0.299,0.59
			c0.398,0.04,0.743,0.251,1.14,0.314c0.317,0.051,0.22,0.348,0.243,0.598c0.039-0.294,0.279-0.246,0.469-0.27
			c0.609-0.073,1.211,0.09,1.82,0.047c0.186-0.014,0.357,0.091,0.348,0.285c-0.043,0.853,0.633,1.139,1.193,1.453
			c1.047,0.59,1.064,0.559,1.287,1.672c0.283-0.344,0.291-0.805,0.646-1.082c0.453-0.353,0.605-0.349,0.801,0.18
			c0.068,0.188,0.285,0.328,0.201,0.57c-0.004,0.09-0.002,0.18-0.023,0.268c-0.01,0.006-0.016,0.016-0.025,0.021
			c0.518,0.215,0.834,0.58,1.078,1.164c0.396,0.942,0.354,1.793,0.006,2.688c-0.113,0.289-0.188,0.628-0.547,0.627
			c0,0.002,0.002,0.004,0.002,0.006c-0.01,0.097-0.006,0.187-0.01,0.279c0.143,0.371,0.129,0.821,0.533,1.061
			c0.196,0.116,0.368,0.271,0.553,0.409c0.692,0.021,1.27,0.234,1.59,0.916c0.145,0.303,0.408,0.438,0.752,0.488
			c0.41,0.061,0.834,0.117,1.191,0.367c-0.101,0.826-0.072,1.072,0.293,1.973c0.147,0.367,0.225,0.713-0.037,1.057
			c0,0.025-0.002,0.053-0.002,0.079c0.041-0.003,0.08-0.013,0.121,0.003c0.311,0.543,0.25,0.979-0.341,1.455
			c-0.405,0.328-0.731,0.752-1.209,0.998c-0.297,0.152-0.34,0.33-0.144,0.652c0.166,0.273,0.636,0.625,0.056,0.979
			c-0.123,0.111-0.269,0.209-0.367,0.338c-0.36,0.461-0.797,0.633-1.381,0.476c-0.551-0.146-1.073-0.074-1.524,0.325
			c-0.254,0.226-0.418,0.42,0.063,0.537c0.174,0.041,0.354,0.064,0.304,0.299c-0.046,0.191-0.218,0.265-0.392,0.248
			c-0.205-0.02-0.406-0.088-0.609-0.135c-0.313-0.072-0.621-0.051-0.76,0.269c-0.215,0.496-0.611,0.475-1.002,0.377
			c-0.51-0.129-1.016-0.265-1.545-0.185c-0.307,0.047-0.439-0.33-0.74-0.276c-0.24-0.025-0.465-0.134-0.695-0.212
			c0.025,0.01,0.053,0.018,0.076,0.029c0.199,0.103,0.42,0.176,0.604,0.313c0.145,0.231,0.234,0.492,0.314,0.754
			c0.01,0.176,0.078,0.304,0.27,0.342c0.17,0.033,0.229,0.148,0.213,0.316c-0.018,0.187-0.146,0.237-0.295,0.271
			c-0.203,0.047-0.398,0.123-0.6,0.172c-0.309,0.074-0.523,0.181-0.529,0.56c-0.004,0.229-0.195,0.401-0.363,0.563
			c-0.148,0.142-0.357,0.303-0.225,0.525c0.121,0.201,0.338,0.07,0.516,0.033c0.49-0.102,1.004-0.148,1.244-0.699
			c0.033-0.08,0.146-0.059,0.23-0.059c0.547-0.092,0.881,0.17,1.049,0.666c0.207,0.606-0.053,0.938-0.709,0.986
			c-0.613,0.045-1.156,0.346-1.721,0.559c-0.254,0.096-0.314,0.42-0.168,0.592c0.639,0.752,0.313,1.424-0.102,2.105
			c-0.084,0.082-0.168,0.166-0.25,0.248c-0.293-0.287-0.629-0.484-1.051-0.498c-0.742-0.023-0.963-0.713-1.396-1.121
			c-0.149-0.142,0.1-0.226,0.226-0.271c0.359-0.125,0.369-0.351,0.2-0.637c-0.247-0.423-0.41-0.869-0.382-1.369
			c-0.39-0.093-0.641-0.211-0.231-0.625c0.23-0.231,0.509-0.494,0.141-0.877c-0.176-0.185-0.12-0.455,0.106-0.593
			c0.15-0.09,0.285-0.207,0.43-0.308c-0.354,0-0.677-0.052-0.852-0.55c-0.107-0.307-0.541-0.277-0.85-0.162
			c-0.228,0.086-0.531,0.178-0.508,0.484c0.025,0.344,0.262,0.57,0.609,0.627c0.199,0.033,0.349,0.133,0.502,0.246
			c0.328,0.24,0.302,0.477-0.077,0.568c-0.362,0.088-0.619,0.219-0.687,0.606c0,0.002-0.039,0.002-0.055-0.006
			c-0.018-0.009-0.029-0.029-0.044-0.043c-0.821,0.036-0.854,0.073-0.877,1.004c0.001,0.041,0.003,0.082,0.005,0.123
			c0.266-0.056,0.504,0.063,0.75,0.129c0.393,0.896,0.334,0.976-0.754,1.012c0.002,0.123,0.004,0.248,0.006,0.371
			c0.476,0.084,0.854,0.125,0.707,0.856c-0.101,0.498,0.084,1.138,0.701,1.425c0.178,0.082,0.367,0.2,0.268,0.422
			c-0.101,0.224-0.25-0.056-0.374-0.019c-0.694,0.213-1.417-0.174-2.122,0.154c-0.462,0.217-1.24,0.041-1.637-0.25
			c-0.007-0.005-0.015-0.008-0.021-0.014c-0.073-0.057-0.137-0.113-0.177-0.176C42.005,87.99,42.003,87.951,42,87.91
			c-0.042,0.094-0.117,0.184-0.122,0.279c-0.052,1.096-0.268,1.276-1.395,1.147c-0.082-0.01-0.163-0.026-0.244-0.043
			c-0.152-0.498-0.503-0.729-1.01-0.754c-0.406-0.029-0.786-0.117-1.018-0.502c-0.475-0.209-0.951-0.412-1.421-0.631
			c-0.088-0.041-0.215-0.148-0.21-0.216c0.046-0.606-0.382-0.635-0.809-0.731c-0.578-0.133-0.875-0.685-1.33-1.008
			c-0.172-0.121-0.061-0.367,0.039-0.521c0.22-0.338,0.105-0.561-0.161-0.811c-0.37-0.346-0.546-1.496-0.347-1.949
			c0.138-0.312,0.438-0.271,0.695-0.332c-0.422-0.211-0.668-0.531-0.748-1.014c-0.07-0.426-0.512-0.592-0.837-0.32
			c-0.169,0.141-0.31,0.23-0.493,0.121c-0.289-0.172-0.401,0.02-0.453,0.227c-0.052,0.213,0.045,0.371,0.311,0.342
			c0.333-0.036,0.328,0.125,0.25,0.386c-0.276,0.922-0.268,0.922-1.232,0.683c-0.436-0.107-0.665,0.059-0.586,0.52
			c0.08,0.465,0.24,0.928,0.078,1.398c-0.124,0.362-0.234,0.762-0.784,0.426c-0.391-0.24-0.551,0.002-0.5,0.379
			c0.039,0.301-0.021,0.449-0.352,0.406c-0.193-0.023-0.295,0.125-0.42,0.239c-0.516,0.472-0.584,0.445-0.733-0.256
			c-0.017-0.084-0.036-0.166-0.054-0.248c-0.183-0.56-0.621-0.963-0.889-1.479c-0.283-0.545-0.896-0.684-1.509-0.664
			c-0.106,0.229-0.238,0.438,0.022,0.679c0.171,0.155,0.225,0.396,0.175,0.746c-0.743-0.607-1.562-0.908-2.476-0.916
			c-0.478-0.146-0.938-0.402-1.465-0.207c-0.055,0.021-0.156,0.026-0.182-0.004c-0.483-0.589-1.256-0.642-1.877-0.951
			c-0.783-0.392-1.267-1.115-2.029-1.494c-0.212-0.104-0.352-0.188-0.619-0.108c-0.338,0.102-0.74-0.052-0.813-0.42
			c-0.186-0.957-1.049-1.043-1.693-1.338c-0.738-0.341-1.025-0.738-0.788-1.544c-0.291-0.553-0.528-1.129-0.734-1.721
			c-0.116-0.334-0.304-0.646-0.652-0.808c-0.562-0.131-0.913-0.502-1.11-1.02c-0.225-0.59-0.791-0.711-1.268-0.947
			c-0.183-0.092-0.336,0-0.292,0.244c0.022,0.125,0.071,0.244,0.088,0.367c0.026,0.189,0.053,0.418-0.188,0.467
			c-0.244,0.047-0.35-0.18-0.339-0.361c0.038-0.646-0.286-1.153-0.554-1.698c-0.161-0.33-0.339-0.443-0.684-0.351
			c-0.576,0.156-0.977-0.092-1.25-0.586c-0.235-0.426-0.486-0.832-0.938-1.072c-0.396-0.211-0.113-0.563-0.158-0.852
			c-0.002-0.082-0.006-0.163-0.008-0.244c-0.536-0.302-0.615-0.859-0.766-1.375c-0.088-0.299-0.157-0.604-0.234-0.904
			c-0.203-0.928-0.928-1.641-1.059-2.598C3.81,63.861,3.721,63.764,3.604,63.8c-0.232,0.074-0.129,0.257-0.123,0.421
			c0.025,0.754,0.156,1.5,0.219,2.25c-0.13-0.199-0.261-0.396-0.394-0.591c-0.768-4.006-1.23-8.044-1.032-12.135
			c0.185-3.828,0.752-7.597,1.697-11.327c0.593-2.336,1.334-4.596,2.285-6.798v0.001c0.111-0.453,0.281-0.885,0.502-1.295
			c0.371-0.43,0.48-0.985,0.715-1.48c0.783-1.65,1.67-3.237,2.636-4.775c0.351-0.105,0.69-0.257,1.003-0.488
			c-0.537,0.828-1.078,1.654-1.593,2.496c-0.351,0.574-0.543,1.209-0.829,1.807c-0.292,0.064-0.365,0.257-0.373,0.539
			c-0.008,0.266-0.123,0.395-0.321,0.373c0.222,0.248,0.274,0.618,0.494,0.916c0.296-0.351,0.657-0.604,0.856-1.002
			c0.43-0.864,1.084-1.566,1.697-2.289c0.596-0.701,1.135-1.443,1.707-2.15c0.658-0.811,1.369-1.627,2.236-2.262
			c0.301,0.084,0.561-0.004,0.791-0.197c0.158-0.133,0.333-0.239,0.518-0.333c0.871-0.444,1.104-0.366,1.447,0.483
			c-0.15,0.637-0.532,1.15-0.945,1.634c-0.674,0.788-1.494,1.451-1.725,2.561c-0.113,0.552-0.625,0.661-1.51,0.444
			c0.482,0.994,0.389,1.918-0.269,2.793c-0.137,0.184-0.233,0.352-0.493,0.238c-0.002-0.003-0.006-0.007-0.008-0.01
			c-0.137,0.463-0.254,0.92-0.742,1.217c-0.321,0.195-0.33,0.859-0.95,0.643c-0.017,0.08-0.052,0.161-0.044,0.239
			c0.016,0.181,0.104,0.532,0.184,0.462c0.408-0.354,0.688,0.621,1.052,0.068c0.171-0.258,0.444-0.29,0.708-0.355
			c0.704-0.173,0.771-0.341,0.391-0.97c-0.094-0.152-0.183-0.413,0.023-0.4c0.602,0.038,0.758-0.399,1.012-0.964
			c0.154,0.719,0.673,1.079,0.687,1.684c0.007,0.277,0.161,0.375,0.423,0.267c0.193-0.079,0.383-0.169,0.574-0.255
			c-0.037-0.002-0.074-0.005-0.111-0.008c-0.346-0.303-0.713-0.583-0.383-1.135c0.063-0.104-0.066-0.314-0.086-0.479
			c-0.082-0.694-0.115-1.38,0.459-1.918c0.086-0.041,0.174-0.082,0.261-0.123c0.638-0.479,1.104-1.127,1.648-1.695
			c0.295-0.309,0.546-0.549,1.058-0.445c0.457,0.092,0.947-0.04,1.325-0.388c-0.141-1.186,0.562-2.052,1.15-2.946
			c0.413-0.627,0.896-1.207,1.347-1.807c0.076-0.1,0.173-0.104,0.279-0.055c0.022-0.643,0.441-0.736,0.979-0.784
			c1.002-0.09,1.973-0.323,2.867-0.957c-0.284-0.218-0.647-0.116-0.816-0.393c-0.012-0.019-0.027-0.034-0.035-0.054
			c-0.258-0.694,0.422-0.868,0.715-1.246c0.2-0.256,0.498-0.41,0.834-0.186c0.322,0.217,0.313,0.771-0.043,1.111
			c-0.163,0.156-0.385,0.25-0.581,0.373c0.644,0.308,1.183-0.104,1.741-0.281c0.756-0.24,1.484-0.578,2.297-0.602
			c0.321,0.006,0.597-0.148,0.884-0.255c0.508-0.227,0.89,0.138,0.998,0.46c0.138,0.414,0.352,0.375,0.629,0.357
			c0.243-0.015,0.459,0.033,0.646,0.19c0.139,0.027,0.245,0.089,0.258,0.249c0.293,0.002,0.586,0.005,0.881,0.008
			c0.033-0.023,0.064-0.054,0.103-0.066c0.327-0.116,0.319-0.693,0.71-0.621c0.324,0.059,0.584,0.357,0.869,0.557
			c0.068,0.046,0.143,0.082,0.211,0.127c0.125,0.002,0.25,0.002,0.375,0.003c0.296,0.216,0.59,0.208,0.884-0.003l0.001-0.002
			c0.271-0.162,0.48-0.45,0.875-0.338c0.342,0.098,0.593,0.234,0.669,0.619c0.08,0.406-0.306,0.361-0.536,0.549
			c0.548,0.281,1.22-0.066,1.637,0.446c0.012,0.196,0.095,0.316,0.313,0.284c0.309-0.045,0.559,0.127,0.832,0.215
			c0.252,0.038,0.458,0.36,0.754,0.12c0.004-0.249,0.008-0.499,0.012-0.748c0.054-0.041,0.088-0.042,0.115-0.032
			c-0.006-0.136-0.102-0.262-0.061-0.404c0,0,0,0,0-0.001c-0.086-0.087-0.092-0.252-0.19-0.325
			c-0.409-0.207-0.509-0.469-0.163-0.831c0.084-0.089,0.172-0.21,0.182-0.323c0.113-1.474,1.143-1.979,2.381-2.177
			c0.653-0.104,1.211-0.552,1.871-0.603c-0.082-0.193-0.037-0.431-0.016-0.648c0.037-0.41-0.038-0.586-0.512-0.496
			c-0.529,0.1-0.835-0.265-0.758-0.811c-0.023,0.027-0.047,0.045-0.079,0.066c-0.526,0.037-0.56-0.363-0.646-0.724
			c0.197-0.339,0.426-0.624,0.881-0.614c0.231,0.006,0.366-0.146,0.371-0.39c0.046-0.106,0.121-0.19,0.186-0.272
			c-0.584-0.099-1.21,0.027-1.706-0.397c-0.071-0.053-0.122-0.128-0.191-0.183c-0.46-0.359-0.38-0.802-0.195-1.264
			c0.077-0.193,0.19-0.313,0.415-0.314c0.54-0.004,0.563-0.324,0.428-0.727c-0.099-0.293-0.16-0.572-0.033-0.793
			c-0.217,0.223-0.328,0.496-0.182,0.884c0.129,0.343-0.039,0.492-0.347,0.552c-0.271,0.053-0.544-0.012-0.817,0.006
			c-0.688,0.043-0.749,0.101-0.843,0.816c-0.055,0.217-0.149,0.407-0.329,0.546c-0.669,0.116-1.096-0.367-1.43-0.761
			c-0.368-0.436-0.521-0.457-0.768,0.02c-0.139,0.269-0.356,0.391-0.654,0.415c-1.164,0.1-1.605,0.993-2.038,1.886
			c-0.087,0.179-0.005,0.368,0.038,0.553c0.204,0.859,0,1.178-0.852,1.448c-0.51,0.161-1.09,0.304-1.539,0.165
			c-0.604-0.189-1.281-0.289-1.797-0.729c-0.156-0.134-0.309-0.367-0.442,0.016c-0.158,0.287,0.181,0.742-0.309,0.918
			c-0.56,0.201-1.095,0.553-1.724,0.189c-0.422-0.242-0.874-0.264-1.329-0.081c-0.227,0.091-0.44,0.169-0.563-0.142
			c-0.914,0.18-1.74,0.604-2.582,0.969c-1.027,0.445-1.741,1.259-2.305,2.215c-0.404,0.686-1,1.174-1.707,1.522
			c-0.266,0.131-0.531,0.021-0.799-0.038c-0.206-0.045-0.387-0.028-0.283,0.291c0.334,1.029,0.132,1.52-0.868,2.156
			c-0.126-0.294,0.067-0.521,0.15-0.771c0.049-0.148,0.044-0.299-0.11-0.387c-0.128-0.074-0.244-0.002-0.35,0.07
			c-0.29,0.197-0.434,0.505-0.595,0.799c-0.124,0.227-0.264,0.461-0.569,0.406c-0.285-0.053-0.304-0.311-0.336-0.541
			c-0.303-0.06-0.605-0.119-0.874-0.171c-0.167-0.713,0.13-1.394,0.12-2.099c0.018-0.026,0.034-0.053,0.052-0.078
			c0.501,0.045,1.065-0.313,1.102-0.794c0.027-0.358,0.183-0.53,0.467-0.654c0.478-0.03,0.918-0.109,0.946-0.729
			c0.008-0.169,0.125-0.26,0.26-0.336c0.29-0.045,0.635,0.172,0.865-0.18c0.031-0.003,0.063-0.006,0.094-0.009
			c0.349-0.122,0.584-0.337,0.795-0.663c0.302-0.465,0.833-0.69,1.367-0.786c0.961-0.173,1.934-0.302,2.602-1.123
			c0.477-0.584,1.176-0.872,1.729-1.353c0.06-0.052,0.166-0.113,0.225-0.092c0.742,0.26,1.395-0.142,2.086-0.262
			c0.368-0.063,0.694-0.152,0.918-0.475c0.035-0.051,0.12-0.131,0.134-0.123c0.623,0.402,1.084-0.205,1.631-0.26
			c0.154-0.015,0.257,0.066,0.26,0.208c0.011,0.708,0.352,0.309,0.581,0.165c0.173-0.107,0.31-0.272,0.511-0.455
			c-0.319-0.182-0.604-0.347-0.891-0.508c-0.112-0.064-0.223-0.135-0.223-0.279c0-0.181,0.133-0.266,0.282-0.289
			c0.563-0.086,1.014-0.563,1.706-0.292c0.449,0.177,1.008-0.048,1.197-0.652c0.164-0.523,0.664-0.603,1.067-0.804
			c0.44-0.221,0.951-0.313,1.166-0.865c0.118-0.303,0.484-0.303,0.755-0.402c1.118-0.41,2.238-0.816,3.363-1.209
			c0.383-0.135,0.791-0.078,1.189-0.094c0.249-0.01,0.52,0.025,0.697-0.207c0.139-0.18,0.317-0.365,0.516-0.191
			c0.252,0.219,0.697,0.269,0.715,0.718c0.008,0.188-0.005,0.378-0.008,0.567c0.93,0.733,1.135,1.996,2.021,2.764
			c0.229,0.199,0.193,0.453,0.042,0.682c-0.103,0.154-0.241,0.285-0.368,0.422c-0.178,0.188-0.493,0.314-0.388,0.648
			c0.042,0.133,0.12,0.211,0.212,0.271c0.082-0.056,0.167-0.108,0.247-0.167c0.308-0.154,0.612-0.029,0.917,0.01
			c0.166,0.021,0.395,0.145,0.484,0.027c0.295-0.392,0.793-0.469,1.117-0.758c0.326-0.291,0.525-0.299,0.803-0.035
			c0.211,0.201,0.418,0.395,0.525,0.691c0.117,0.324,0.535,0.35,0.705,0.061c0.119-0.205,0.365-0.197,0.531-0.381
			c-0.074-0.279-0.502-0.393-0.422-0.768c0.049-0.244,0.24-0.388,0.359-0.582c0.166-0.277,0.441-0.291,0.719-0.294
			c0.455-0.003,0.875-0.099,1.211-0.434c0.656-0.144,1.018,0.356,1.391,0.714c0.718,0.684,1.438,1.059,2.439,0.604
			c0.373-0.169,0.732,0.125,1.008,0.381c0.193,0.178,0.148,0.371-0.129,0.479c-0.359,0.14-0.709,0.261-1.098,0.097
			c-0.145-0.062-0.305-0.168-0.48-0.022c0.074,0.271,0.344,0.35,0.515,0.521c-0.082,0.125-0.162,0.25-0.244,0.374
			c-0.315,0.082-0.664,0.215-0.549,0.599c0.098,0.326,0.479,0.249,0.762,0.246c0.185-0.002,0.383-0.241,0.545,0.041
			c-0.594,0.09-1.149,0.354-1.774,0.319c-0.283-0.015-0.539-0.046-0.771-0.207c-0.231-0.161-0.438-0.181-0.692-0.017
			c-0.404,0.258-0.918,0.102-1.148-0.313c-0.063-0.109-0.092-0.239-0.166-0.336c-0.131-0.171-0.32-0.186-0.516-0.119
			c-0.105,0.036-0.197,0.111-0.178,0.229c0.057,0.316,0.342,0.002,0.49,0.199c-0.393,0.437-0.297,0.79,0.254,1.038
			c0.224,0.101,0.328,0.259,0.328,0.544c0,0.685,0.258,0.918,0.957,0.93c0.692,0.011,1.389-0.025,2.08,0.005
			c0.354,0.017,0.778,0.001,0.717,0.616c-0.012,0.106,0.465,0.303,0.735,0.389c0.324,0.103,0.656,0.183,0.978,0.303
			c0.06-0.052,0.129-0.094,0.228-0.104c0.18-0.002,0.358-0.022,0.529,0.054c0.368,0.091,0.606,0.432,0.977,0.521
			c0.137,0.122,0.344,0.222,0.436,0.048c0.316-0.603,0.779-0.304,1.199-0.236c0.355,0.058,0.693,0.303,0.869-0.316
			c0.09-0.32,0.535-0.243,0.812-0.066c0.168,0.109,0.291,0.252,0.478,0.054c0.631-0.001,1.231,0.063,1.512,0.761
			c0.056,0.113,0.106,0.229,0.166,0.341c0.131,0.25,0.19,0.665,0.565,0.55c0.416-0.127,1.043,0.047,1.164-0.639v-0.002
			c0.539,0.138,1.033,0.439,1.601,0.49c0.022,0.068,0.041,0.139,0.063,0.207c-0.027,0.049-0.057,0.097-0.096,0.133
			c-0.223,0.206-0.555,0.354-0.367,0.75c0.187,0.4,0.502,0.625,0.938,0.676c1.115,3.661,2.021,7.534,2.689,11.646
			c-0.262,0.101-0.184,0.417-0.01,0.615c0.055,0.061,0.094,0.125,0.125,0.191c0.043,0.283,0.081,0.571,0.122,0.855
			c0.007,0.091,0.019,0.18,0.038,0.266c0.03,0.207,0.062,0.413,0.09,0.621c-0.351,0.645-0.025,1.188,0.247,1.738
			c0.237,1.973,0.411,4.01,0.552,6.08C75.454,44.719,75.392,44.68,75.338,44.635z"/>
	</g>
</g>
<g>
</g>
<g>
</g>
<g>
</g>
<g>
</g>
<g>
</g>
<g>
</g>
<g>
</g>
<g>
</g>
<g>
</g>
<g>
</g>
<g>
</g>
<g>
</g>
<g>
</g>
<g>
</g>
<g>
</g>
</svg>
